<svg width="1500" height="1178" viewBox="0 0 1500 1178" xmlns="http://www.w3.org/2000/svg"><title>Untitled</title><path d="M938.205 239.162c-14.849-14.847-38.919-14.847-53.767 0L400.471 723.129c-74.142 74.11-194.757 74.11-268.867 0-74.142-74.109-74.142-194.757 0-268.866L520.923 64.912c14.881-14.849 14.881-38.919 0-53.768-14.848-14.848-38.919-14.848-53.767 0L77.805 400.496c-103.74 103.772-103.74 272.627 0 376.4 103.772 103.772 272.66 103.772 376.433 0l483.967-483.967c14.847-14.848 14.847-38.919 0-53.767M1099.54 77.829c-103.775-103.772-272.663-103.772-376.436 0L239.138 561.796c-14.848 14.88-14.848 38.919 0 53.799 14.848 14.849 38.918 14.849 53.767 0l483.966-483.966c74.142-74.142 194.757-74.142 268.869 0 14.88 14.848 38.92 14.848 53.8 0 14.85-14.881 14.85-38.919 0-53.8m322.63 322.667c-103.77-103.773-272.66-103.773-376.43 0L561.771 884.462c-14.848 14.848-14.848 38.919 0 53.767 14.881 14.848 38.919 14.848 53.8 0l483.969-483.966c74.11-74.142 194.72-74.142 268.86 0 74.11 74.109 74.11 194.757 0 268.866L979.086 1112.45c-14.848 14.85-14.848 38.92 0 53.76 14.847 14.85 38.914 14.85 53.764 0l389.32-389.314c103.77-103.773 103.77-272.628 0-376.4m-161.33 161.3c-14.85-14.848-38.89-14.848-53.77 0L723.104 1045.76c-74.109 74.14-194.757 74.14-268.866 0-14.848-14.85-38.919-14.85-53.767 0-14.88 14.88-14.88 38.92 0 53.8 103.773 103.74 272.628 103.74 376.4 0l483.969-483.965c14.88-14.88 14.88-38.919 0-53.799" fill="#ffffff" fill-rule="evenodd"/></svg>
